# xmcd CD database file
#
# Track frame offsets:
#	150
#	15354
#	31128
#	44783
#
# Disc length: 715 seconds
#
# Revision: 0
# Processed by: cddbd v1.5.2PL0 Copyright (c) Steve Scherf et al.
# Submitted via: CDex 1.70beta2
#
DISCID=2702c904
DTITLE=Tony Sacca - Las Vegas Rocks
DYEAR=2007
DGENRE=Jazz
TTITLE0=A Rainy Day in Vegas
TTITLE1=Vegas Nights
TTITLE2=Las Vegas Rocks
TTITLE3=Las Vegas - The Greatest Town Around
EXTD=YEAR: 2007
EXTT0=
EXTT1=
EXTT2=
EXTT3=
PLAYORDER=
